<?xml version="1.0" encoding="UTF-8"?>
<svg id="Layer_1" data-name="Layer 1" xmlns="http://www.w3.org/2000/svg" version="1.1" viewBox="0 0 200 200">
  <defs>
    <style>
      .cls-1 {
        fill: #9163f2;
        stroke-width: 0px;
      }
    </style>
  </defs>
  <circle class="cls-1" cx="57.8" cy="33.8" r="15.9"/>
  <circle class="cls-1" cx="121.1" cy="41.1" r="15.9"/>
  <path class="cls-1" d="M158.7,100.2h-19c0-9.4,0-19.4,0-22.3,0-.4,0-.8,0-1.2,0-1.2-1-2.2-2.2-2.2h-30.7c-1.2,0-2.2,1-2.2,2.2v23.3h-24.5c-2.9,0-5.3-2.4-5.3-5.3v-24c0-2.5-2-4.5-4.5-4.5h-26.1c-2.5,0-4.5,2-4.5,4.5v44.5c0,10.8,8.7,19.5,19.5,19.5h41.2c1.3.1,2.4,1.3,2.3,2.6-1.5,16.9-6.6,28.1-10.9,34.8-2.2,3.3.2,7.7,4.2,7.7h24.6c3.6,0,6.9-2.2,8.2-5.6,1.5-3.9,2.8-7.9,3.9-12,1.7-6.2,3-12.6,4-18.9.5-2.9.9-5.9,1.2-8.8h20.7c2.5,0,4.5-2,4.5-4.4v-25.5c0-2.4-2-4.4-4.5-4.4Z"/>
</svg>